<svg xmlns="http://www.w3.org/2000/svg" width="18" height="18" viewBox="0 0 18 18"><g transform="translate(-42 -395)"><rect width="18" height="18" transform="translate(42 395)" fill="none"/><path d="M27.816,20.154a3.394,3.394,0,0,0,2.365-1.282,4.164,4.164,0,0,0,.921-2.517A1.747,1.747,0,0,0,31.069,16,3.846,3.846,0,0,0,28.5,17.373a3.947,3.947,0,0,0-.955,2.437,1.617,1.617,0,0,0,.033.32A1.239,1.239,0,0,0,27.816,20.154ZM25.041,34c1.077,0,1.554-.744,2.9-.744,1.366,0,1.665.721,2.864.721,1.177,0,1.965-1.121,2.709-2.22a10.235,10.235,0,0,0,1.2-2.552,3.94,3.94,0,0,1-2.331-3.639,4.1,4.1,0,0,1,1.876-3.433A4.059,4.059,0,0,0,30.8,20.348c-1.321,0-2.4.824-3.075.824-.733,0-1.7-.778-2.842-.778-2.176,0-4.385,1.854-4.385,5.355a11.306,11.306,0,0,0,1.832,5.962C23.2,32.97,23.953,34,25.041,34Z" transform="translate(23.5 379)"/></g></svg>