<svg xmlns="http://www.w3.org/2000/svg" width="18" height="18" viewBox="0 0 18 18"><path d="M17.637,9.2a10.337,10.337,0,0,0-.164-1.84H9v3.48h4.842a4.139,4.139,0,0,1-1.8,2.715v2.257h2.908A8.774,8.774,0,0,0,17.637,9.2Z" transform="translate(0.003 0.004)" fill="#4285f4" fill-rule="evenodd"/><path d="M9,18a8.589,8.589,0,0,0,5.954-2.18L12.043,13.56a5.428,5.428,0,0,1-8.081-2.85H.957v2.331A8.993,8.993,0,0,0,9,18Z" transform="translate(0 0.003)" fill="#34a853" fill-rule="evenodd"/><path d="M3.963,10.708a5.319,5.319,0,0,1,0-3.419V4.958H.957a9.008,9.008,0,0,0,0,8.081l3.006-2.331Z" transform="translate(0 0.002)" fill="#fbbc05" fill-rule="evenodd"/><path d="M9,3.578a4.86,4.86,0,0,1,3.439,1.345l2.58-2.58A8.646,8.646,0,0,0,9,0,8.993,8.993,0,0,0,.957,4.956L3.963,7.287A5.362,5.362,0,0,1,9,3.578Z" transform="translate(0 0)" fill="#ea4335" fill-rule="evenodd"/><path d="M0,0H18V18H0Z" fill="none" fill-rule="evenodd"/></svg>